inDegrees=no
num_controls=7
num_derivatives=13
num_iterations=149
num_multipliers=7
num_parameters=0
num_slacks=7
num_states=26
objective=5.455069
objective_accelerations=0.534666
objective_balance=0.005205
objective_effort=0.427326
objective_height=4.418321
objective_ligament=0.069551
solver_duration=1283.547653
status=Solve_Succeeded
success=true
DataType=double
version=3
OpenSimVersion=4.4-2022-07-23-0e9fedc
endheader
time	/jointset/ground_pelvis/pelvis_tilt/value	/jointset/ground_pelvis/pelvis_tx/value	/jointset/ground_pelvis/pelvis_ty/value	/jointset/hip_r/hip_flexion_r/value	/jointset/hip_r/hip_adduction_r/value	/jointset/hip_r/hip_rotation_r/value	/jointset/back/lumbar_extension/value	/jointset/patellofemoral_r/patellar_flexion_r/value	/jointset/knee_r/knee_flexion_r/value	/jointset/knee_r/knee_adduction_r/value	/jointset/knee_r/knee_rotation_r/value	/jointset/ankle_r/ankle_angle_r/value	/jointset/subtalar_r/subtalar_angle_r/value	/jointset/ground_pelvis/pelvis_tilt/speed	/jointset/ground_pelvis/pelvis_tx/speed	/jointset/ground_pelvis/pelvis_ty/speed	/jointset/hip_r/hip_flexion_r/speed	/jointset/hip_r/hip_adduction_r/speed	/jointset/hip_r/hip_rotation_r/speed	/jointset/back/lumbar_extension/speed	/jointset/patellofemoral_r/patellar_flexion_r/speed	/jointset/knee_r/knee_flexion_r/speed	/jointset/knee_r/knee_adduction_r/speed	/jointset/knee_r/knee_rotation_r/speed	/jointset/ankle_r/ankle_angle_r/speed	/jointset/subtalar_r/subtalar_angle_r/speed	/forceset/tau_hip_flexion_r	/forceset/tau_hip_adduction_r	/forceset/tau_hip_rotation_r	/forceset/tau_knee_flexion_r	/forceset/tau_ankle_angle_r	/forceset/tau_subtalar_angle_r	/forceset/tau_lumbar_extension	lambda_cid13_p0	lambda_cid14_p0	lambda_cid14_p1	lambda_cid14_p2	lambda_cid14_p3	lambda_cid14_p4	lambda_cid14_p5	/jointset/ground_pelvis/pelvis_tilt/accel	/jointset/ground_pelvis/pelvis_tx/accel	/jointset/ground_pelvis/pelvis_ty/accel	/jointset/hip_r/hip_flexion_r/accel	/jointset/hip_r/hip_adduction_r/accel	/jointset/hip_r/hip_rotation_r/accel	/jointset/back/lumbar_extension/accel	/jointset/patellofemoral_r/patellar_flexion_r/accel	/jointset/knee_r/knee_flexion_r/accel	/jointset/knee_r/knee_adduction_r/accel	/jointset/knee_r/knee_rotation_r/accel	/jointset/ankle_r/ankle_angle_r/accel	/jointset/subtalar_r/subtalar_angle_r/accel	gamma_cid13_p0	gamma_cid14_p0	gamma_cid14_p1	gamma_cid14_p2	gamma_cid14_p3	gamma_cid14_p4	gamma_cid14_p5
1.5	-0.04960324511902356	0.03714379065688216	0.828847677285373	0.7459648363142687	-0.2177866199169856	-0.1460277018871505	-0.6209356544462875	0.9011681181116793	0.901168118111668	-0.05976475694443529	0.1745313389256177	0.2986052179692312	0.1485828443956154	0.3859793340975954	0.2093553422139967	0.4616150182759682	-1.835106812121438	0.02839775898634728	-0.176751431476114	0.8031022609316644	-1.86874379261532	-1.868743792615318	0.4284923696537272	-7.091533372681953e-05	-0.5223910348918653	-0.1700351946876625	-0.1384601001188445	-0.005792701954414814	0.01936993488083594	-0.3128859483784396	0.02253529942357384	0.001585470256898526	0.2001500900700771	-11.41148301215095	-34.83903569805057	-4.289460087235132	-0.1758407223711408	-3.364677022606588	-632.6661568787342	70.14506152992834	0.08876368265554473	0.5270545745407904	-0.4716899674802975	-0.9172089842573943	-0.1854124025301083	-0.6003664365439056	1.698078330340379	-1.225341661767819	-1.225341661767813	0.3730052464073073	-0.001039752019795123	-0.5372581041490535	-0.3318143427522326	1.363459674937259e-07	1.749865006182585e-07	-2.456461190319823e-07	1.831645287959857e-06	-6.202922807969435e-08	2.492785248280529e-07	-3.473354703468576e-07
1.51	-0.04573934957424054	0.03926341136990696	0.8334392962247207	0.7275699985813363	-0.2175126865533552	-0.1478243950852551	-0.6128210916268277	0.8824219775401535	0.8824219775401448	-0.05545949328000105	0.1745311285661397	0.293354942700752	0.1468650280988302	0.3867471156789399	0.2145376357725275	0.4566115428409345	-1.843612791157478	0.02637587263909144	-0.1825655894970689	0.819693050158316	-1.880217941282725	-1.880217941282723	0.4325519228940961	1.767242556851578e-05	-0.5275881866676553	-0.1735039300887998	-0.1320900226262362	-0.006350932874763421	0.01904253171481354	-0.308618251765684	0.02379518210624154	0.0005168905813653134	0.1940727547463007	-12.38484073153172	-34.22509691384994	-4.543121889834667	-0.2529661993719687	-3.292208082979463	-628.2824587336419	69.25428478943205	0.0628970212497188	0.5091443536755823	-0.5292191598301597	-0.780087178466895	-0.2124098497092444	-0.5685048786307452	1.621991298543506	-1.068516179170994	-1.068516179170965	0.4210986069446715	0.01233054252078405	-0.499544986540814	-0.3507425612358194	1.182019913833337e-07	1.236002304420087e-07	-4.689292924938644e-07	1.357658636114012e-06	-1.350009569040091e-08	2.206638065028874e-07	-4.662771822615051e-07
1.52	-0.04186935388856861	0.04143392053995031	0.8379779718440551	0.7090975420950056	-0.2172593386729749	-0.1496785427423205	-0.6045441384991581	0.8635690825399635	0.86356908253996	-0.05111390043434506	0.1745315085847259	0.2880549756600655	0.1451132565635454	0.3871993622753165	0.2195330336177034	0.4510263542732871	-1.850630562801103	0.02428066233639916	-0.188242323268401	0.8355803225736067	-1.890094678347894	-1.890094678347892	0.4365582058981843	4.716028952496934e-05	-0.5323293893333187	-0.176826242387589	-0.1257199451336286	-0.006909163795110338	0.01871512854881386	-0.3043505551529265	0.02505506478890988	-0.000551689094165458	0.1879954194225239	-13.35688704863659	-33.61161564980841	-4.792743070718601	-0.3354432769431596	-3.236876207432914	-623.9199396223603	68.42210582752627	0.02565668566197272	0.4896754318697832	-0.5880325940030336	-0.619567505774359	-0.2000771936173663	-0.5728815866192852	1.557374968068196	-0.9058593413205003	-0.9058593413204942	0.3623511991511735	-0.01285973108766416	-0.4460682821238016	-0.3025297222825772	1.086344852613177e-07	8.96266662865713e-08	-6.537744338417398e-07	1.039867205768722e-06	2.159946135717657e-08	2.058761355695997e-07	-5.66925862136661e-07
1.53	-0.03799647227998133	0.04365343130964001	0.8424579556830789	0.690562383925781	-0.2170271368295935	-0.151589538087701	-0.5961119908369273	0.8446253537921434	0.8446253537921445	-0.04672937620604681	0.1745321376728724	0.2827099974024074	0.1433293185263834	0.3873160788541863	0.2243355423383175	0.4448795312697926	-1.856143378135045	0.02215759267307538	-0.1939495980220702	0.8507173832510786	-1.898378830130176	-1.898378830130167	0.4403071729082776	6.648324303889694e-05	-0.5365796112739429	-0.1799184244058378	-0.1190744669011525	-0.00820844211385585	0.01846520520242566	-0.3007019656051492	0.0268819867900553	-0.001421594928756044	0.1817358656270691	-14.32368181252994	-32.81239892042262	-4.90820129333257	-0.4568516550692736	-3.324407812572467	-619.7788640569883	68.00737549817153	-0.004447081354685	0.4705126112080764	-0.6415983471507886	-0.4784762520649202	-0.2186836281353065	-0.5684042818121413	1.472097624383573	-0.7488785210416588	-0.7488785210404668	0.3751421337453286	0.007635258286815719	-0.401469475298438	-0.3061630995853639	1.081794785019514e-07	7.415410227824679e-08	-7.977791660684837e-07	8.880331982677687e-07	4.2430094604181e-08	2.05779702490182e-07	-6.481381954698573e-07
1.54	-0.0341242487506763	0.045919961970346	0.8468737530533421	0.6719798300622444	-0.2168162180379343	-0.1535573569530333	-0.5875324273665625	0.8256069464416315	0.8256069464416325	-0.04230856777128617	0.1745326213805025	0.2773251228602898	0.141515738537441	0.3870677464188902	0.2289370118209596	0.4381890605211708	-1.860109701663421	0.02002405199193751	-0.1996070272585947	0.8650634842004272	-1.90503039888684	-1.905030398886822	0.4438150471906477	1.808418518786174e-05	-0.5403086462252353	-0.1827546327436591	-0.1124289886686783	-0.009507720432607818	0.01821528185601371	-0.297053376057374	0.02870890879119938	-0.002291500763356435	0.1754763118316136	-15.28231202425123	-32.01460913622852	-5.022236649518215	-0.5803978608509178	-3.422599731529727	-615.6615962526221	67.64054345263038	-0.04735311717121014	0.4494675842753609	-0.6967621430284647	-0.3102691446611912	-0.2021713971801266	-0.5629124831902462	1.399183022443584	-0.5793427361967922	-0.5793427361968082	0.3141326536065116	-0.02640413336084753	-0.3418308842574644	-0.2513349861969895	1.087022287930222e-07	6.092627587997471e-08	-9.337306885107678e-07	7.510728206178336e-07	6.152074564327866e-08	2.066324633149266e-07	-7.190481066307108e-07
1.55	-0.03025631395846018	0.04823142525312831	0.8512199987399911	0.6533653822703553	-0.2166266631159955	-0.1555820227877972	-0.5788135239977367	0.8065301968361763	0.8065301968361762	-0.03785425561670849	0.1745326883136686	0.2719055706703609	0.1396751080272301	0.386458552529382	0.2333140538423313	0.4309756026569629	-1.862512454926141	0.01788102431114751	-0.2053195611847184	0.8785700458125975	-1.910034379766559	-1.910034379766572	0.4470149247281675	-8.595146919894607e-07	-0.5435138154267934	-0.1853366687448429	-0.1058213144861954	-0.01063271794728867	0.01795758106355397	-0.293450734803751	0.03042680804015988	-0.003370150310259124	0.1692419138267152	-16.23050768691299	-31.28835706695332	-5.255328006460259	-0.6668324099565955	-3.414092889326346	-611.7936800906712	67.07270513950114	-0.07679880102305577	0.4256014968603467	-0.7462667988317785	-0.1651635195936928	-0.2212582099952001	-0.5742772288961343	1.304321167798007	-0.4181766517301323	-0.4181766517347764	0.3178998159391482	0.01101935289144643	-0.2966235662196345	-0.2565286247765485	1.10351525250901e-07	5.028477759763244e-08	-1.060403512723131e-06	6.312494512745051e-07	7.860663457326647e-08	2.085788605944667e-07	-7.780878357234309e-07
